<svg id="boy" xmlns="http://www.w3.org/2000/svg" xmlns:xlink="http://www.w3.org/1999/xlink" width="50" height="50.078" viewBox="0 0 50 50.078">
  <defs>
    <linearGradient id="linear-gradient" x1="0.5" y1="0.664" x2="0.5" y2="-0.223" gradientUnits="objectBoundingBox">
      <stop offset="0" stop-color="#f8d798"/>
      <stop offset="1" stop-color="#d4b881"/>
    </linearGradient>
  </defs>
  <g id="Ellipse_" data-name="Ellipse " fill="#d5eaff" stroke="#d5eaff" stroke-width="1">
    <circle cx="25" cy="25" r="25" stroke="none"/>
    <circle cx="25" cy="25" r="24.5" fill="none"/>
  </g>
  <path id="Path" d="M1194.19,343.537c4.007-1.716,25.812-1.9,29.669,0s2.224,10.35,2.224,10.35-5.189,6.664-16.942,6.7a24.7,24.7,0,0,1-18.3-8S1190.182,345.253,1194.19,343.537Z" transform="translate(-1184.107 -310.508)" fill="#058a00"/>
  <path id="Path-2" data-name="Path" d="M1194.254,335.984a5.576,5.576,0,0,1,3.975-2.576c2.912-.508,4.021,0,4.021,0a6.376,6.376,0,0,1,3.836-.693,3.414,3.414,0,0,1,2.826,4.027,4.966,4.966,0,0,1,2.952,1.692c1.057,1.414,1.288,4.385.924,6.748s-.882,3.791-2.115,5.024c0,0-8.5-.142-10.279-.142-4.8-.566-5.315,1.092-6.595-1.359s-1.591-2.056-1.664-5.828S1191.879,338,1194.254,335.984Z" transform="translate(-1177.582 -328.209)" fill="#a87f1e"/>
  <path id="Path-3" data-name="Path" d="M1194.681,357.784l.773-6.674h9.689l.917,6.674a6.868,6.868,0,0,1-5.96,3.041A5.887,5.887,0,0,1,1194.681,357.784Z" transform="translate(-1175.022 -326)" fill="url(#linear-gradient)"/>
  <path id="Path-4" data-name="Path" d="M1195.254,339.376c1.6-2.974,1.728-2.432,5.5-2.463a21.2,21.2,0,0,0,7.3-1.572s1.2,3.355,2.5,4.035,1.745,4.258,1.745,4.258a21.939,21.939,0,0,1-1,5.577c-1.976,4.574-5.5,7.425-7.277,7.425-4.8-.566-8.133-7.185-8.133-7.185S1193.658,342.35,1195.254,339.376Z" transform="translate(-1178.582 -325.209)" fill="#f8d798"/>
</svg>
