<svg xmlns="http://www.w3.org/2000/svg" xmlns:xlink="http://www.w3.org/1999/xlink" width="50" height="50.137" viewBox="0 0 50 50.137">
  <defs>
    <linearGradient id="linear-gradient" x1="0.5" y1="0.664" x2="0.5" y2="-0.223" gradientUnits="objectBoundingBox">
      <stop offset="0" stop-color="#f8d798"/>
      <stop offset="1" stop-color="#7c6c4c"/>
    </linearGradient>
    <linearGradient id="linear-gradient-2" x1="0.5" y1="1.03" x2="0.5" y2="-0.579" gradientUnits="objectBoundingBox">
      <stop offset="0" stop-color="#d5eaff"/>
      <stop offset="1" stop-color="#98a6b5"/>
    </linearGradient>
  </defs>
  <g id="boy_doctor" data-name="boy doctor" transform="translate(-296 -322)">
    <g id="Ellipse_" data-name="Ellipse " transform="translate(296 322)" fill="#f9ffa5" stroke="#f8fea4" stroke-width="1">
      <circle cx="25" cy="25" r="25" stroke="none"/>
      <circle cx="25" cy="25" r="24.5" fill="none"/>
    </g>
    <path id="Path" d="M1194.19,343.537c4.007-1.716,25.812-1.9,29.669,0s2.5,10.589,2.5,10.589a28.16,28.16,0,0,1-7.617,4.424c-4.207,1.525-3.735,2.16-9.358,2.089s-4.878-.216-9.43-1.741-9.14-6.238-9.14-6.238S1190.182,345.253,1194.19,343.537Z" transform="translate(-888.107 11.492)" fill="#fff"/>
    <path id="Path-2" data-name="Path" d="M1195.312,334.817c2.376-2.013,2.741-1.553,6.167-1.9a11.587,11.587,0,0,1,6.413,1.462,6.887,6.887,0,0,1,4.791,1.741c1.813,1.886,2.231,3.188,1.523,8.7s-1.518,6.095-2.752,7.328c0,0-9.281.909-11.061.909-4.8-.566-5.7.142-6.812-.807s-2.215-6.024-2.288-9.8S1192.936,336.83,1195.312,334.817Z" transform="translate(-881.582 -6.209)"/>
    <path id="Path-3" data-name="Path" d="M1193.681,357.784l1.773-6.674h9.689l1.917,6.674-2.594,8.011a9.109,9.109,0,0,1-4.365,1.03,7.512,7.512,0,0,1-4.108-1.03Z" transform="translate(-879.022 -4)" fill="url(#linear-gradient)"/>
    <path id="Path-4" data-name="Path" d="M1195.254,339.376c1.6-2.974,3.63-1.347,7.4-1.378a33.418,33.418,0,0,0,7.12-.888s.084,2.874,1.245,4.035a4.407,4.407,0,0,1,1.277,2.49,19.335,19.335,0,0,1-.5,5.912c.052-.093.613-.522.5-.335-2.213,3.806-6.5,7.425-8.277,7.425-4.8-.566-8.767-7.09-8.767-7.09S1193.658,342.35,1195.254,339.376Z" transform="translate(-882.582 -3.209)" fill="#f8d798"/>
    <path id="Path-5" data-name="Path" d="M1193.682,351.784l4.12-5.889,4.4,5.889-1.61,9.912h-5.265Z" transform="translate(-876.7 10)" fill="url(#linear-gradient-2)"/>
    <path id="Path-6" data-name="Path" d="M1192.385,351.784a13.335,13.335,0,0,0,6.417,2.055,17.279,17.279,0,0,0,6.939-1.963l-2.776,8.912-4.163-4.249-3.849,4.249Z" transform="translate(-877.7 2)" fill="#d5eaff"/>
    <path id="Path-7" data-name="Path" d="M1197.269,353.246l2.49-2.651,2.79,2.651-1.2,1.988.816,6.047-.429,2.485h-3.648l-.6-2.485.944-6.047Z" transform="translate(-878.7 7.931)" fill="#b40000"/>
  </g>
</svg>
