<svg xmlns="http://www.w3.org/2000/svg" xmlns:xlink="http://www.w3.org/1999/xlink" width="59" height="59" viewBox="0 0 59 59"><defs><linearGradient id="a" x1="0.5" x2="0.5" y2="1" gradientUnits="objectBoundingBox"><stop offset="0" stop-color="#f8d3a2"/><stop offset="1" stop-color="#f8d3a2"/></linearGradient><linearGradient id="c" x1="0.5" x2="0.5" y2="1" gradientUnits="objectBoundingBox"><stop offset="0" stop-color="#c15b5b"/><stop offset="1" stop-color="#741717"/></linearGradient><linearGradient id="d" x1="0.5" x2="0.5" y2="1" gradientUnits="objectBoundingBox"><stop offset="0" stop-color="#ffe08b"/><stop offset="1" stop-color="#bca866"/></linearGradient><linearGradient id="g" x1="0.5" x2="0.5" y2="1" gradientUnits="objectBoundingBox"><stop offset="0" stop-color="#f18080"/><stop offset="1" stop-color="#9a4646"/></linearGradient></defs><g transform="translate(-293 -150.731)"><g transform="translate(293 150.731)" fill="#f9ffa5" stroke="#f9ffa5" stroke-width="1"><circle cx="29.5" cy="29.5" r="29.5" stroke="none"/><circle cx="29.5" cy="29.5" r="29" fill="none"/></g><path d="M1099.538,181.1c4.544-.105,11.215.339,15.69,6.971s2.208,15.028,2.208,19.555c0,8.79-9.565,10.263-17.9,10.263s-18.9-1.473-18.9-10.263c0-4.281-1.677-12.924,3.049-19.555S1094.994,181.2,1099.538,181.1Z" transform="translate(-777 -19.642)" stroke="#807b67" stroke-width="1" fill="url(#a)"/><path d="M1099.538,181.1c4.544-.105,11.215.339,15.69,6.971s2.208,15.028,2.208,19.555c0,8.79-9.565,10.263-17.9,10.263s-18.9-1.473-18.9-10.263c0-4.281-1.677-12.924,3.049-19.555S1094.994,181.2,1099.538,181.1Z" transform="translate(-777 -19.642)" stroke="#807b67" stroke-width="1" fill="url(#a)"/><path d="M1086.036,181.094c1.315-.027,1.167.666,1.556,1.928a4.056,4.056,0,0,1-1.92,4.312c-1.757,1.189-3.992-.6-3.992-2.811,0-1.078,2.231,1.923,3.6.253S1084.721,181.12,1086.036,181.094Z" transform="translate(-762.925 -19.642)" fill="#292720" stroke="#807b67" stroke-width="1"/><path d="M1086.637,179.76c4.234,0,8.51,3.792,8.51,6.981,0,1.3.153,3.537-1.935,4.579s-3.916-.411-6.419-.411c-2.227,0-4.171,1.453-6.317.411s-2.266-3.068-2.266-4.579C1078.209,183.552,1082.4,179.76,1086.637,179.76Z" transform="translate(-764.024 4.27)" stroke="#807b67" stroke-width="1" fill="url(#c)"/><path d="M1081.385,180.823a3.1,3.1,0,0,1,3.12,3.167c-.033,1.453-1,2.265-2.97,2.339s-3.343-.886-3.311-2.339A3.276,3.276,0,0,1,1081.385,180.823Z" transform="translate(-758.686 7.18)" fill="#362a2a"/><path d="M1081.69,181.671a2.579,2.579,0,0,1,1.476,2.266c0,1.169-.892,2.412-1.476,2.412h-1.338v-4.678A2.1,2.1,0,0,1,1081.69,181.671Z" transform="translate(-739.35 -3.395)" fill="#f8d3a2" stroke="#807b67" stroke-width="1"/><path d="M1081.747,181.671a2.583,2.583,0,0,0-1.4,2.266c0,1.169.844,2.412,1.4,2.412h1.266v-4.678A1.881,1.881,0,0,0,1081.747,181.671Z" transform="translate(-780.102 -3.395)" fill="#f8d3a2" stroke="#807b67" stroke-width="1"/><path d="M1.386,5.095c.37-.012,1.172-1.242,1.172-2.515S2.13,0,1.386,0,.305-.092.044.27a13.016,13.016,0,0,0,0,4.568C.32,5.3.823,5.113,1.386,5.095Z" transform="translate(320.149 186.676) rotate(-90)" fill="#fff" stroke="#827e6e" stroke-width="0.5"/><path d="M1.768,2.9c0,1.169-1.21,2.987-1.59,2.959S.869,4.087.869,2.917-.3-.028.076,0A4.212,4.212,0,0,1,1.768,2.9Z" transform="matrix(0.017, -1, 1, 0.017, 329.311, 176.945)" stroke="#807b67" stroke-width="1" fill="url(#d)"/><path d="M1.768,2.9c0,1.169-1.21,2.987-1.59,2.959S.869,4.087.869,2.917-.3-.028.076,0A4.212,4.212,0,0,1,1.768,2.9Z" transform="matrix(0.017, -1, 1, 0.017, 309.668, 176.945)" stroke="#807b67" stroke-width="1" fill="url(#d)"/><path d="M0,1.907,1.815,0Z" transform="translate(321.419 185.439) rotate(-43)" fill="none" stroke="#827e6e" stroke-width="0.5"/><path d="M1078.475,179.854c.484.016,1.189,2.539,0,2.5C1077.063,182.307,1077.99,179.838,1078.475,179.854Z" transform="translate(-755.787 8.096)" fill="url(#c)"/><path d="M1081.229,180.824c.523,0,1.755-1.323,2.7-.785a2.315,2.315,0,0,1,.784,3.09c-.676,1.031-1.824.386-3.291.386s-2.974.614-3.494-.386a2.577,2.577,0,0,1,1.078-3.09C1079.956,179.59,1080.553,180.824,1081.229,180.824Z" transform="translate(-758.699 11.177)" fill="url(#g)"/></g></svg>