<svg xmlns="http://www.w3.org/2000/svg" width="59" height="59" viewBox="0 0 59 59"><g transform="translate(-178 -173)"><g transform="translate(178 173)" fill="#f9ffa5" stroke="#f9ffa5" stroke-width="1"><circle cx="29.5" cy="29.5" r="29.5" stroke="none"/><circle cx="29.5" cy="29.5" r="29" fill="none"/></g><g transform="translate(1068 170)" fill="#d1ac87"><path d="M -860.4999389648438 61.50009918212891 C -867.817626953125 61.50009918212891 -874.8055419921875 58.76680755615234 -880.1763305664063 53.80373001098633 C -885.3828125 48.9925537109375 -888.6259765625 42.51030731201172 -889.3468017578125 35.50009918212891 L -831.6530151367188 35.50009918212891 C -832.3738403320313 42.51030731201172 -835.6170043945313 48.9925537109375 -840.823486328125 53.80373001098633 C -846.1942749023438 58.76680755615234 -853.1821899414063 61.50009918212891 -860.4999389648438 61.50009918212891 Z" stroke="none"/><path d="M -860.4999389648438 61.00009918212891 C -853.308349609375 61.00009918212891 -846.4409790039063 58.31396865844727 -841.1627807617188 53.43650817871094 C -836.1828002929688 48.83461380004883 -833.030517578125 42.67713928222656 -832.2124633789063 36.00009918212891 L -888.787353515625 36.00009918212891 C -887.9692993164063 42.67713928222656 -884.8169555664063 48.83461380004883 -879.8370361328125 53.43650817871094 C -874.558837890625 58.31396865844727 -867.6914672851563 61.00009918212891 -860.4999389648438 61.00009918212891 M -860.4999389648438 62.00009918212891 C -867.9437866210938 62.00009918212891 -875.0521850585938 59.21965789794922 -880.5156860351563 54.17094802856445 C -885.9481201171875 49.15094757080078 -889.279296875 42.34260940551758 -889.8956298828125 35.00009918212891 L -831.1041870117188 35.00009918212891 C -831.7205810546875 42.34337997436523 -835.0521240234375 49.15134048461914 -840.484130859375 54.17094802856445 C -845.9476318359375 59.21965789794922 -853.0560302734375 62.00009918212891 -860.4999389648438 62.00009918212891 Z" stroke="none" fill="#f9ffa5"/></g><g transform="translate(212 218)" fill="#a5886b" stroke="#a5886b" stroke-width="1"><circle cx="3.5" cy="3.5" r="3.5" stroke="none"/><circle cx="3.5" cy="3.5" r="3" fill="none"/></g><g transform="translate(190 215)" fill="#a5886b" stroke="#a5886b" stroke-width="1"><circle cx="2.5" cy="2.5" r="2.5" stroke="none"/><circle cx="2.5" cy="2.5" r="2" fill="none"/></g><g transform="translate(226 210)" fill="#a5886b" stroke="#a5886b" stroke-width="1"><circle cx="2.5" cy="2.5" r="2.5" stroke="none"/><circle cx="2.5" cy="2.5" r="2" fill="none"/></g><g transform="translate(201 217)" fill="#a5886b" stroke="#a5886b" stroke-width="1"><circle cx="2.5" cy="2.5" r="2.5" stroke="none"/><circle cx="2.5" cy="2.5" r="2" fill="none"/></g><path d="M1197.784,338.847c.132-2.691,2.1-4.469,1.5-4.624-.661-.179-2.969,1.933-3.975,4.624a11.824,11.824,0,0,0-.766,5.938s.074,1.992,1.764,2.163,1.732-2.163,1.732-2.163C1198.294,344.011,1197.653,341.538,1197.784,338.847Z" transform="translate(-988.582 -134.707)"/><path d="M1197.784,337.786c.132-2.075,2.1-3.446,1.5-3.565-.661-.138-2.969,1.49-3.975,3.565a7.189,7.189,0,0,0-.766,4.579,1.806,1.806,0,0,0,1.764,1.668c1.69.132,1.732-1.668,1.732-1.668C1198.294,341.768,1197.653,339.861,1197.784,337.786Z" transform="translate(-997.582 -133.789)"/><path d="M1197.784,337.786c.132-2.075,2.1-3.446,1.5-3.565-.661-.138-2.969,1.49-3.975,3.565a7.189,7.189,0,0,0-.766,4.579,1.806,1.806,0,0,0,1.764,1.668c1.69.132,1.732-1.668,1.732-1.668C1198.294,341.768,1197.653,339.861,1197.784,337.786Z" transform="translate(-980.582 -133.789)"/></g></svg>