<svg id="girl" xmlns="http://www.w3.org/2000/svg" xmlns:xlink="http://www.w3.org/1999/xlink" width="50" height="50" viewBox="0 0 50 50">
  <defs>
    <linearGradient id="linear-gradient" x1="0.5" y1="0.664" x2="0.5" y2="-0.223" gradientUnits="objectBoundingBox">
      <stop offset="0" stop-color="#f8d798"/>
      <stop offset="1" stop-color="#d4b881"/>
    </linearGradient>
  </defs>
  <g id="Ellipse_" data-name="Ellipse " fill="#f9ffa5" stroke="#f9ffa5" stroke-width="1">
    <circle cx="25" cy="25" r="25" stroke="none"/>
    <circle cx="25" cy="25" r="24.5" fill="none"/>
  </g>
  <path id="Path" d="M1194.19,343.463c4.007-1.623,25.812-1.8,29.669,0s2.224,9.788,2.224,9.788-5.441,6.648-17.194,6.679a23.927,23.927,0,0,1-18.047-7.911S1190.182,345.086,1194.19,343.463Z" transform="translate(-1184.107 -310.508)" fill="#7d00a2" stroke="#7d00a2" stroke-width="1"/>
  <path id="Path-2" data-name="Path" d="M1194.681,357.784l.773-6.674h9.689l.917,6.674a6.868,6.868,0,0,1-5.96,3.041A5.887,5.887,0,0,1,1194.681,357.784Z" transform="translate(-1175.022 -326)" fill="url(#linear-gradient)"/>
  <path id="Path-3" data-name="Path" d="M1196.53,341.115c1.6-2.974,1.874-2.905,5.646-2.936a7.87,7.87,0,0,0,5.88-2.837,7.408,7.408,0,0,0-.8,4.588,9.939,9.939,0,0,0,2.88,4.235,5.226,5.226,0,0,1,1.16,5.048c-1.976,4.574-5.5,7.425-7.277,7.425-4.8-.566-6.993-7.425-6.993-7.425S1194.934,344.089,1196.53,341.115Z" transform="translate(-1178.582 -325.209)" fill="#f8d798"/>
  <path id="Path-4" data-name="Path" d="M1194.254,335.984a5.576,5.576,0,0,1,3.975-2.576c2.912-.508,4.021,0,4.021,0a6.376,6.376,0,0,1,3.836-.693,3.414,3.414,0,0,1,2.826,4.027,4.966,4.966,0,0,1,2.952,1.692c1.057,1.414,2.6,4.162,2.24,6.525s1.837,6.151-3.245,17.387a5.575,5.575,0,0,1-1,1.007,20.946,20.946,0,0,1-2.645,1.667,9.284,9.284,0,0,1,.278-2.675,46.922,46.922,0,0,0,.465-6.142,38.427,38.427,0,0,0,2.287-4.112c.683-1.593-1.105-4.909-1.105-4.909a7.794,7.794,0,0,1-2.981-4.5,4.981,4.981,0,0,1,.861-4.251,7.594,7.594,0,0,1-5.358,2.709c-3.315.077-4.652-.1-6.142,3.033s.542,7.916.542,7.916,2.654,4.758,3.141,7.052,1.466,8.682,1.466,8.682-4.461-2.22-5.149-3.388-5.274-11.546-5.014-17.616S1191.879,338,1194.254,335.984Z" transform="translate(-1177.582 -328.209)" fill="#ac6d00"/>
</svg>
