<svg xmlns="http://www.w3.org/2000/svg" xmlns:xlink="http://www.w3.org/1999/xlink" width="59" height="59" viewBox="0 0 59 59"><defs><linearGradient id="a" x1="0.5" x2="0.5" y2="1" gradientUnits="objectBoundingBox"><stop offset="0" stop-color="#f6a9a9"/><stop offset="1" stop-color="#9f0000"/></linearGradient></defs><g transform="translate(-278 -149)"><g transform="translate(278 149)" fill="#ffa5a5" stroke="#ffa5a5" stroke-width="1"><circle cx="29.5" cy="29.5" r="29.5" stroke="none"/><circle cx="29.5" cy="29.5" r="29" fill="none"/></g><path d="M1077.951,190.027c-2.537-8.975,1.557-15.9,7.474-15.839s8.416,6.173,10.15,6.186,2.426-6.418,9.678-6.186,9.886,6.864,7.467,15.839-11.841,20.168-17.145,20.062S1080.488,199,1077.951,190.027Z" transform="translate(-788 -12.745)" stroke="maroon" stroke-linejoin="round" stroke-width="1" fill="url(#a)"/><g transform="translate(286 181)" fill="#7375ba" stroke="#7375ba" stroke-width="1"><circle cx="1.5" cy="1.5" r="1.5" stroke="none"/><circle cx="1.5" cy="1.5" r="1" fill="none"/></g><path d="M289.22,187.5h11.194l3.416-10.474,3.768,18.238,4.578-14.043,2.622,10.037,1.512-3.758h11.636" transform="translate(-2 -5)" fill="none" stroke="#7375ba" stroke-linecap="round" stroke-linejoin="round" stroke-width="1"/><g transform="translate(324 181)" fill="#7375ba" stroke="#7375ba" stroke-width="1"><circle cx="1.5" cy="1.5" r="1.5" stroke="none"/><circle cx="1.5" cy="1.5" r="1" fill="none"/></g></g></svg>